name C:\Users\u0101727\Documents\MyRepositories\upper-imu-dc\Results\main_tracking\Case_32\ABD01_linearAccelerations_groundFrame.mot
datacolumns 4
datarows 47
range 4.56000000 5.02000000
endheader 
time	radius_imu_x	radius_imu_y	radius_imu_z	
          4.56000000	          0.36732446	          9.51590814	         -0.34538776	
          4.57000000	          0.37670110	          9.55693437	         -0.32823105	
          4.58000000	          0.38101193	          9.60582177	         -0.31184662	
          4.59000000	          0.38066078	          9.65828611	         -0.29665060	
          4.60000000	          0.37354611	          9.70956627	         -0.28307855	
          4.61000000	          0.35683602	          9.75411613	         -0.27210695	
          4.62000000	          0.32886915	          9.78592446	         -0.26530194	
          4.63000000	          0.28993392	          9.79963416	         -0.26413821	
          4.64000000	          0.24191019	          9.79207088	         -0.26893493	
          4.65000000	          0.18785877	          9.76343465	         -0.27827736	
          4.66000000	          0.13228013	          9.71739828	         -0.28949686	
          4.67000000	          0.08175169	          9.65985362	         -0.29990118	
          4.68000000	          0.04486428	          9.59695083	         -0.30777424	
          4.69000000	          0.03051461	          9.53358741	         -0.31235523	
          4.70000000	          0.04467055	          9.47345448	         -0.31308676	
          4.71000000	          0.08751366	          9.41929412	         -0.30910287	
          4.72000000	          0.15232411	          9.37374806	         -0.29896952	
          4.73000000	          0.22671232	          9.33947448	         -0.28138712	
          4.74000000	          0.29602024	          9.31870904	         -0.25597715	
          4.75000000	          0.34800747	          9.31249579	         -0.22385286	
          4.76000000	          0.37709732	          9.32012536	         -0.18755258	
          4.77000000	          0.38598495	          9.33923623	         -0.15046282	
          4.78000000	          0.38353222	          9.36647837	         -0.11610995	
          4.79000000	          0.38031123	          9.39822605	         -0.08765308	
          4.80000000	          0.38457900	          9.43098677	         -0.06765452	
          4.81000000	          0.40051257	          9.46161798	         -0.05793299	
          4.82000000	          0.42856943	          9.48767039	         -0.05927942	
          4.83000000	          0.46676712	          9.50795621	         -0.07106796	
          4.84000000	          0.51174396	          9.52312550	         -0.09106386	
          4.85000000	          0.55911272	          9.53590309	         -0.11570018	
          4.86000000	          0.60334652	          9.55071848	         -0.14083823	
          4.87000000	          0.63770709	          9.57272164	         -0.16275295	
          4.88000000	          0.65455919	          9.60645659	         -0.17892816	
          4.89000000	          0.64626983	          9.65460282	         -0.18843581	
          4.90000000	          0.60686264	          9.71706553	         -0.19202230	
          4.91000000	          0.53435496	          9.79047481	         -0.19202449	
          4.92000000	          0.43279048	          9.86820410	         -0.19194015	
          4.93000000	          0.31230177	          9.94120230	         -0.19539450	
          4.94000000	          0.18669145	          9.99966814	         -0.20469612	
          4.95000000	          0.06995532	         10.03510372	         -0.21976067	
          4.96000000	         -0.02661912	         10.04210316	         -0.23802786	
          4.97000000	         -0.09586085	         10.01946305	         -0.25552012	
          4.98000000	         -0.13505651	          9.97022558	         -0.26822924	
          4.99000000	         -0.14542650	          9.90065597	         -0.27320326	
          5.00000000	         -0.13077939	          9.81856879	         -0.26920585	
          5.01000000	         -0.09638763	          9.73175750	         -0.25673766	
          5.02000000	         -0.04847106	          9.64702288	         -0.23767854	
